<svg xmlns="http://www.w3.org/2000/svg" width="32" height="32" viewBox="0 0 32 32"><title>paperclip</title><path fill="#ffffff" d="M20.288 9.681a.71.71 0 0 0-.712.725l-.012 12.175c-.006 2.738-1.856 3.962-3.575 3.95-1.719-.019-3.569-1.275-3.563-4.006 0-2.094.012-10.481.019-14.675 0-.963.375-1.713 1.05-2.106a2.173 2.173 0 0 1 2.188.019c.675.406 1.044 1.162 1.044 2.125l-.019 14.031c0 .456-.106.831-.294 1.069-.119.15-.275.238-.431.238-.35-.006-.713-.456-.706-1.3 0 0 .012-10.394.019-10.794 0-.406-.319-.738-.713-.738s-.713.325-.713.731l-.019 10.794c0 1.813 1.075 2.769 2.138 2.781.587.006 1.144-.275 1.538-.775s.606-1.188.606-1.988l.019-14.031c0-1.487-.637-2.725-1.756-3.394a3.586 3.586 0 0 0-3.619-.031c-1.119.656-1.762 1.881-1.769 3.369-.006 4.188-.012 12.575-.019 14.675-.006 3.575 2.506 5.462 4.987 5.488a4.885 4.885 0 0 0 3.519-1.444c.887-.906 1.481-2.231 1.481-3.962l.006-12.181a.701.701 0 0 0-.694-.744z"/></svg>