<svg xmlns="http://www.w3.org/2000/svg" width="32" height="32" viewBox="0 0 32 32"><title>link</title><path fill="#ffffff" d="M16.031 13H16h.031zM23.031 10H20s1.625 1.063 1.975 3h1.056c1.1 0 1.969.869 1.969 1.969v2c0 1.1-.869 2.031-1.969 2.031h-7c-1.1 0-2.031-.931-2.031-2.031V15h-3v1.969c0 .719.156 1.406.431 2.031.787 1.762 2.556 3 4.6 3h7C25.793 22 28 19.731 28 16.969v-2A4.946 4.946 0 0 0 23.031 10z"/><path fill="#ffffff" d="M20.6 13a4.945 4.945 0 0 0-4.569-3h-7C6.268 10 4 12.206 4 14.969v2C4 19.731 6.269 22 9.031 22H12s-1.613-1.063-2.006-3h-.963C7.931 19 7 18.069 7 16.969v-2C7 13.869 7.931 13 9.031 13h7c1.1 0 1.969.869 1.969 1.969V17h3v-2.031c0-.7-.144-1.369-.4-1.969z"/></svg>