<svg xmlns="http://www.w3.org/2000/svg" width="47" height="47"><defs><filter id="a"><feFlood flood-color="#333" flood-opacity="1" result="floodOut"/><feComposite operator="atop" in="floodOut" in2="SourceGraphic" result="compOut"/><feBlend in="compOut" in2="SourceGraphic"/></filter></defs><path fill-rule="evenodd" stroke="#000" d="M36.614 35.634c-2.699 0-5.016-1.606-6.145-3.917l-8.631 2.199c.037.326.062.655.062.99 0 4.739-3.781 8.594-8.429 8.594-4.647 0-8.428-3.855-8.428-8.594 0-4.739 3.781-8.595 8.428-8.595 1.231 0 2.397.277 3.452.763l6.652-12.058a5.476 5.476 0 0 1-2.332-4.496c0-.059.015-.113.017-.172L9.119 8.163c-.53.902-1.487 1.513-2.59 1.513C4.858 9.676 3.5 8.29 3.5 6.587s1.358-3.088 3.028-3.088 3.029 1.385 3.029 3.088c0 .06-.014.115-.017.173l11.967 2.154c.677-2.217 2.685-3.842 5.079-3.842 2.946 0 5.343 2.444 5.343 5.448 0 3.005-2.397 5.449-5.343 5.449a5.2 5.2 0 0 1-1.723-.316l-6.688 12.124a8.627 8.627 0 0 1 3.373 4.712l8.417-2.146a7.1 7.1 0 0 1-.237-1.73c0-3.872 3.089-7.022 6.886-7.022s6.886 3.15 6.886 7.022c0 3.871-3.089 7.021-6.886 7.021zM6.529 4.956c-.883 0-1.601.732-1.601 1.631 0 .9.718 1.632 1.601 1.632.882 0 1.599-.732 1.599-1.632 0-.899-.717-1.631-1.599-1.631zm20.057 9.556c2.158 0 3.914-1.791 3.914-3.992 0-2.2-1.756-3.991-3.914-3.991-2.158 0-3.915 1.791-3.915 3.991 0 2.201 1.757 3.992 3.915 3.992zM13.471 27.768c-3.86 0-7 3.201-7 7.138 0 3.936 3.14 7.138 7 7.138s7-3.202 7-7.138-3.14-7.138-7-7.138zm23.143-4.72c-3.009 0-5.457 2.496-5.457 5.565 0 3.068 2.448 5.564 5.457 5.564 3.01 0 5.457-2.496 5.457-5.564 0-3.069-2.448-5.565-5.457-5.565zM13.471 40.121c-2.82 0-5.114-2.34-5.114-5.215 0-.402.32-.729.714-.729.395 0 .714.327.714.729 0 2.072 1.654 3.758 3.686 3.758a.72.72 0 0 1 .714.728.722.722 0 0 1-.714.729z" filter="url(#a)"/></svg>