<svg xmlns="http://www.w3.org/2000/svg" width="32" height="32"><path d="M25.994 20.969c-.913-.938-3.506-2.694-5.206-2.694-.394 0-.738.087-1.019.269-.831.531-1.494.944-1.813.944-.175 0-.363-.156-.775-.512l-.069-.063c-1.144-.994-1.387-1.25-1.831-1.712l-.113-.119c-.081-.081-.15-.156-.219-.225-.387-.4-.669-.688-1.662-1.813l-.044-.05c-.475-.537-.787-.887-.806-1.144-.019-.25.2-.656.756-1.412.675-.912.7-2.037.081-3.344-.494-1.031-1.3-2.019-2.013-2.888l-.063-.075c-.613-.75-1.325-1.125-2.119-1.125-.881 0-1.612.475-2 .725-.031.019-.063.044-.094.063-.869.55-1.5 1.306-1.737 2.075-.356 1.156-.594 2.656 1.112 5.775 1.475 2.7 2.813 4.512 4.938 6.694 2 2.05 2.888 2.712 4.875 4.15 2.212 1.6 4.337 2.519 5.825 2.519 1.381 0 2.469 0 4.019-1.869 1.625-1.962.95-3.163-.025-4.169z"/></svg>