<svg xmlns="http://www.w3.org/2000/svg" xmlns:xlink="http://www.w3.org/1999/xlink"><symbol id="s-icon-back" viewBox="0 0 240.823 240.823">
<path id="Chevron_Right" d="M57.633,129.007L165.93,237.268c4.752,4.74,12.451,4.74,17.215,0c4.752-4.74,4.752-12.439,0-17.179
		l-99.707-99.671l99.695-99.671c4.752-4.74,4.752-12.439,0-17.191c-4.752-4.74-12.463-4.74-17.215,0L57.621,111.816
		C52.942,116.507,52.942,124.327,57.633,129.007z"/>
</symbol><symbol id="s-icon-facebook" viewBox="0 0 32 32"><path d="M18 12V9.619C18 8.544 18.238 8 19.906 8H22V4h-3.494c-4.281 0-5.694 1.963-5.694 5.331V12H9.999v4h2.813v12h5.187V16h3.525l.475-4h-4z"/></symbol><symbol id="s-icon-mail" viewBox="0 0 32 32"><title>android-mail</title><path d="M27.333 5H4.667A2.675 2.675 0 0 0 2 7.667v16.667c0 1.467 1.2 2.667 2.667 2.667h22.666c1.467 0 2.667-1.2 2.667-2.667V7.667C30 6.2 28.8 5 27.333 5zM27 10.667L16 18 5 10.667V8l11 7.333L27 8v2.667z"/></symbol><symbol id="s-icon-next" viewBox="0 0 240.823 240.823">
<path id="Chevron_Right_1_" d="M183.189,111.816L74.892,3.555c-4.752-4.74-12.451-4.74-17.215,0c-4.752,4.74-4.752,12.439,0,17.179
		l99.707,99.671l-99.695,99.671c-4.752,4.74-4.752,12.439,0,17.191c4.752,4.74,12.463,4.74,17.215,0l108.297-108.261
		C187.881,124.315,187.881,116.495,183.189,111.816z"/>
</symbol><symbol id="s-icon-pin" viewBox="0 0 32 32"><title>android-pin</title><path d="M16 2C10.5 2 6 6.41 6 11.8 6 19.15 16 30 16 30s10-10.85 10-18.2C26 6.41 21.5 2 16 2zm0 13.3c-2 0-3.572-1.54-3.572-3.5S14 8.3 16 8.3s3.572 1.54 3.572 3.5S18 15.3 16 15.3z"/></symbol><symbol id="s-icon-search" viewBox="0 0 32 32"><title>search</title><path d="M27.813 24.169l-5.3-5.369a9.79 9.79 0 0 0 1.313-4.869c0-5.475-4.45-9.931-9.912-9.931s-9.912 4.456-9.912 9.931c0 5.475 4.45 9.931 9.912 9.931a9.75 9.75 0 0 0 5.006-1.4l5.275 5.35c.119.119.288.194.456.194s.337-.069.456-.194l2.706-2.738a.641.641 0 0 0 0-.906zm-13.901-16.3c3.338 0 6.05 2.719 6.05 6.063s-2.712 6.062-6.05 6.062c-3.338 0-6.05-2.719-6.05-6.063s2.712-6.063 6.05-6.063z"/></symbol><symbol id="s-icon-telephone" viewBox="0 0 32 32"><title>ios-telephone</title><path d="M25.994 20.969c-.913-.938-3.506-2.694-5.206-2.694-.394 0-.738.087-1.019.269-.831.531-1.494.944-1.813.944-.175 0-.363-.156-.775-.512l-.069-.063c-1.144-.994-1.387-1.25-1.831-1.712l-.113-.119c-.081-.081-.15-.156-.219-.225-.387-.4-.669-.688-1.662-1.813l-.044-.05c-.475-.537-.787-.887-.806-1.144-.019-.25.2-.656.756-1.412.675-.912.7-2.037.081-3.344-.494-1.031-1.3-2.019-2.013-2.888l-.063-.075c-.613-.75-1.325-1.125-2.119-1.125-.881 0-1.612.475-2 .725-.031.019-.063.044-.094.063-.869.55-1.5 1.306-1.737 2.075-.356 1.156-.594 2.656 1.112 5.775 1.475 2.7 2.813 4.512 4.938 6.694 2 2.05 2.888 2.712 4.875 4.15 2.212 1.6 4.337 2.519 5.825 2.519 1.381 0 2.469 0 4.019-1.869 1.625-1.962.95-3.163-.025-4.169z"/></symbol><symbol id="s-icon-twitter" viewBox="0 0 32 32"><path d="M30.75 6.844c-1.087.481-2.25.806-3.475.956a6.079 6.079 0 0 0 2.663-3.35 12.02 12.02 0 0 1-3.844 1.469A6.044 6.044 0 0 0 21.675 4a6.052 6.052 0 0 0-6.05 6.056c0 .475.05.938.156 1.381A17.147 17.147 0 0 1 3.306 5.106a6.068 6.068 0 0 0 1.881 8.088c-1-.025-1.938-.3-2.75-.756v.075a6.056 6.056 0 0 0 4.856 5.937 6.113 6.113 0 0 1-1.594.212c-.388 0-.769-.038-1.138-.113a6.06 6.06 0 0 0 5.656 4.206 12.132 12.132 0 0 1-8.963 2.507A16.91 16.91 0 0 0 10.516 28c11.144 0 17.231-9.231 17.231-17.238 0-.262-.006-.525-.019-.781a12.325 12.325 0 0 0 3.019-3.138z"/></symbol></svg>